<?xml version="1.0" encoding="UTF-8" standalone="no"?>
<!-- Created with Inkscape (http://www.inkscape.org/) -->

<svg
   xmlns:dc="http://purl.org/dc/elements/1.1/"
   xmlns:cc="http://creativecommons.org/ns#"
   xmlns:rdf="http://www.w3.org/1999/02/22-rdf-syntax-ns#"
   xmlns:svg="http://www.w3.org/2000/svg"
   xmlns="http://www.w3.org/2000/svg"
   xmlns:sodipodi="http://sodipodi.sourceforge.net/DTD/sodipodi-0.dtd"
   xmlns:inkscape="http://www.inkscape.org/namespaces/inkscape"
   width="200"
   height="148"
   id="svg3079"
   version="1.1"
   inkscape:version="0.48.0 r9654"
   sodipodi:docname="New document 3">
  <defs
     id="defs3081" />
  <sodipodi:namedview
     id="base"
     pagecolor="#ffffff"
     bordercolor="#666666"
     borderopacity="1.0"
     inkscape:pageopacity="0.0"
     inkscape:pageshadow="2"
     inkscape:zoom="0.5"
     inkscape:cx="104.97284"
     inkscape:cy="74.000001"
     inkscape:document-units="px"
     inkscape:current-layer="layer1"
     showgrid="false"
     fit-margin-top="0"
     fit-margin-left="0"
     fit-margin-right="0"
     fit-margin-bottom="0"
     inkscape:window-width="1680"
     inkscape:window-height="1000"
     inkscape:window-x="-8"
     inkscape:window-y="-8"
     inkscape:window-maximized="1" />
  <metadata
     id="metadata3084">
    <rdf:RDF>
      <cc:Work
         rdf:about="">
        <dc:format>image/svg+xml</dc:format>
        <dc:type
           rdf:resource="http://purl.org/dc/dcmitype/StillImage" />
        <dc:title></dc:title>
      </cc:Work>
    </rdf:RDF>
  </metadata>
  <g
     inkscape:label="Layer 1"
     inkscape:groupmode="layer"
     id="layer1"
     transform="translate(-374.28571,-555.50504)">
    <g
       id="g3156">
      <g
         id="g3006"
         transform="translate(587.86904,632.83837)">
        <path
           id="path2855"
           d="m -113.58333,47.66667 -100,0 0,-2 0,-2 100,0 100.000003,0 0,2 0,2 -100.000003,0 z"
           style="opacity:0.25;fill:#000000"
           inkscape:connector-curvature="0" />
        <path
           id="path2853"
           d="m -113.58333,23.666667 -100,0 0,-2 0,-2 100,0 100.000003,0 0,2 0,2 -100.000003,0 z"
           style="opacity:0.25;fill:#000000"
           inkscape:connector-curvature="0" />
        <path
           id="path2851"
           d="m -113.58333,-0.33333304 -100,0 0,-1.99999996 0,-2 100,0 100.000003,0 0,2 0,1.99999996 -100.000003,0 z"
           style="opacity:0.25;fill:#000000"
           inkscape:connector-curvature="0" />
        <path
           clip-path="none"
           id="path2849"
           d="m -113.58333,-24.333333 -100,0 0,-2 0,-2 100,0 100.000003,0 0,2 0,2 -100.000003,0 z"
           style="opacity:0.25;fill:#000000"
           inkscape:connector-curvature="0" />
        <g
           transform="translate(36,-66.5)"
           id="g3714">
          <path
             id="path2847"
             style="opacity:0.25;fill:#000000;fill-opacity:1"
             d="m -149.58333,18.166667 -100,0 0,-2 0,-2 100,0 100.000003,0 0,2 0,2 -100.000003,0 z"
             inkscape:connector-curvature="0" />
        </g>
      </g>
      <g
         transform="matrix(0.17676114,0,0,-0.17676114,374.30093,664.95791)"
         id="g4053">
        <path
           inkscape:connector-curvature="0"
           style="fill:#000000;fill-opacity:1;stroke:none"
           d="m 486.40784,279.375 158.48253,0 0,58.32157 -158.48253,0 z"
           id="rect3954" />
      </g>
    </g>
  </g>
</svg>
