<?xml version="1.0" encoding="UTF-8" standalone="no"?>
<!-- Created with Inkscape (http://www.inkscape.org/) -->
<svg
   xmlns:dc="http://purl.org/dc/elements/1.1/"
   xmlns:cc="http://web.resource.org/cc/"
   xmlns:rdf="http://www.w3.org/1999/02/22-rdf-syntax-ns#"
   xmlns:svg="http://www.w3.org/2000/svg"
   xmlns="http://www.w3.org/2000/svg"
   xmlns:sodipodi="http://sodipodi.sourceforge.net/DTD/sodipodi-0.dtd"
   xmlns:inkscape="http://www.inkscape.org/namespaces/inkscape"
   width="744.09448"
   height="737.35999"
   id="svg2210"
   sodipodi:version="0.32"
   inkscape:version="0.45pre1"
   version="1.0"
   sodipodi:docname="Теноровый.svg"
   inkscape:output_extension="org.inkscape.output.svg.inkscape"
   sodipodi:docbase="G:\Temp"
   sodipodi:modified="true">
  <defs
     id="defs2212" />
  <sodipodi:namedview
     id="base"
     pagecolor="#ffffff"
     bordercolor="#666666"
     borderopacity="1.0"
     gridtolerance="10000"
     guidetolerance="10"
     objecttolerance="10"
     inkscape:pageopacity="0.0"
     inkscape:pageshadow="2"
     inkscape:zoom="0.35"
     inkscape:cx="635.29724"
     inkscape:cy="214.05903"
     inkscape:document-units="px"
     inkscape:current-layer="layer1"
     height="737.36px"
     width="744.09448px"
     inkscape:window-width="880"
     inkscape:window-height="573"
     inkscape:window-x="88"
     inkscape:window-y="116" />
  <metadata
     id="metadata2215">
    <rdf:RDF>
      <cc:Work
         rdf:about="">
        <dc:format>image/svg+xml</dc:format>
        <dc:type
           rdf:resource="http://purl.org/dc/dcmitype/StillImage" />
      </cc:Work>
    </rdf:RDF>
  </metadata>
  <g
     inkscape:label="Layer 1"
     inkscape:groupmode="layer"
     id="layer1">
    <g
       style="overflow:visible"
       id="g2582"
       transform="translate(5289.8842,1126.6098)">
      <g
         id="g2584">
        <path
           d="M 214.623,62.616 C 218.175,62.648 221.535,63.992 221.791,66.968 C 221.983,69.144 219.103,71.128 215.551,71.128 C 211.967,71.096 208.639,69.784 208.351,66.808 C 208.159,64.6 211.07,62.616 214.623,62.616 z M 215.486,70.392 C 217.022,70.392 218.014,68.92 217.854,67.736 C 217.502,65.4 216.702,63.512 214.59,63.512 C 213.054,63.512 212.158,65.016 212.35,66.2 C 212.703,68.536 213.375,70.392 215.486,70.392 z "
           id="path2586" />
        <path
           d="M 215.375,36 L 214.767,36 L 214.767,11.552 L 215.375,11.552 L 215.375,36 z "
           id="path2588" />
      </g>
      <g
         id="g2590">
        <path
           d="M 218.182,101.029 L 218.898,99.735 L 219.492,99.735 L 219.82,104.923 L 219.242,104.923 C 218.804,103.43 218.287,102.349 217.692,101.681 C 216.933,100.832 216.063,100.407 215.082,100.407 C 214.329,100.407 213.654,100.621 213.059,101.048 C 212.463,101.475 212.006,102.116 211.688,102.97 C 211.37,103.824 211.211,105.027 211.211,106.576 C 211.211,108.08 211.37,109.256 211.689,110.104 C 212.008,110.952 212.448,111.577 213.009,111.978 C 213.57,112.379 214.229,112.579 214.984,112.579 C 216.007,112.579 216.799,112.292 217.358,111.719 C 217.917,111.146 218.196,110.406 218.196,109.499 L 218.196,108.279 C 218.196,108.086 218.121,107.937 217.971,107.832 C 217.822,107.727 217.576,107.674 217.236,107.674 L 216.134,107.674 L 216.134,107.065 L 221.587,107.065 L 221.587,107.674 L 220.847,107.674 C 220.518,107.674 220.283,107.732 220.142,107.846 C 220.001,107.96 219.931,108.126 219.931,108.343 L 219.931,113.315 L 219.353,113.315 C 219.143,112.541 218.924,111.798 218.696,111.088 C 218.257,111.809 217.734,112.35 217.127,112.711 C 216.521,113.071 215.834,113.252 215.066,113.252 C 213.97,113.252 212.955,112.971 212.021,112.408 C 211.087,111.845 210.348,111.054 209.806,110.031 C 209.264,109.008 208.993,107.853 208.993,106.564 C 208.993,105.269 209.265,104.109 209.809,103.084 C 210.353,102.059 211.098,101.245 212.043,100.641 C 212.988,100.037 213.943,99.736 214.909,99.736 C 215.459,99.736 215.984,99.829 216.485,100.013 C 216.983,100.197 217.55,100.536 218.182,101.029 z "
           id="path2592" />
      </g>
    </g>
    <path
       id="path11"
       d="M 35.850431,351.5992 L 700.0798,351.5992"
       style="fill:none;fill-rule:evenodd;stroke:#131516;stroke-width:7.24612236" />
    <path
       id="path13"
       d="M 35.850431,555.10617 L 702.78074,555.10617"
       style="fill:none;fill-rule:evenodd;stroke:#131516;stroke-width:7.24612236" />
    <path
       id="path15"
       d="M 35.850431,453.26653 L 700.0798,453.26653"
       style="fill:none;fill-rule:evenodd;stroke:#131516;stroke-width:7.24612236" />
    <path
       id="path17"
       d="M 35.850431,249.75956 L 697.37888,249.75956"
       style="fill:none;fill-rule:evenodd;stroke:#131516;stroke-width:7.24612236" />
    <path
       id="path19"
       d="M 35.850431,148.09224 L 697.37888,148.09224"
       style="fill:none;fill-rule:evenodd;stroke:#131516;stroke-width:7.24612236" />
    <path
       d="M 535.24274,197.30603 C 578.63487,197.69695 619.68151,214.1156 622.80886,250.47118 C 625.15438,277.05377 589.97156,301.29082 546.57943,301.29082 C 502.79637,300.8999 462.14065,284.87217 458.62238,248.51659 C 456.27686,221.54308 491.83838,197.30603 535.24274,197.30603 z M 545.78539,292.29965 C 564.54956,292.29965 576.6681,274.31732 574.71347,259.85327 C 570.41333,231.3161 560.64031,208.2518 534.8396,208.2518 C 516.07545,208.2518 505.12966,226.62505 507.47519,241.0891 C 511.78753,269.62628 519.99686,292.29965 545.78539,292.29965 z "
       id="path2665" />
    <text
       xml:space="preserve"
       style="font-size:63.13063431px;font-style:normal;font-weight:normal;fill:#000000;fill-opacity:1;stroke:none;stroke-width:1px;stroke-linecap:butt;stroke-linejoin:miter;stroke-opacity:1;font-family:Bitstream Vera Sans"
       x="466.97562"
       y="711.67511"
       id="text2700"><tspan
         sodipodi:role="line"
         id="tspan2702"
         x="466.97562"
         y="711.67511"
         style="font-size:189.39190674px;font-family:Times New Roman">C<tspan
   style="font-size:94.69595337px"
   id="tspan2704">1</tspan></tspan></text>
    <path
       style="overflow:visible"
       id="path2396"
       d="M 128.53497,451.45912 L 80.325671,451.45912 L 80.325671,45.24876 L 128.53497,45.24876 L 128.53497,451.45912 z M 152.24062,451.45912 L 152.24062,45.24876 L 168.31782,45.24876 L 168.31782,451.45912 L 152.24062,451.45912 z M 207.68215,158.95551 C 209.55716,165.11631 211.29827,171.2771 212.91659,177.43789 C 215.85747,186.55072 220.14324,193.51508 225.76831,198.331 C 233.54185,204.75965 244.12229,207.84563 257.51532,207.57218 C 282.69418,207.30433 295.28372,184.00046 295.28372,137.6662 C 295.28372,117.84452 292.33163,100.0318 286.44429,84.22803 C 278.94418,63.60836 268.22981,53.29015 254.30105,53.29015 C 239.82542,53.29015 227.36989,56.10269 216.92892,61.72775 C 208.08952,66.28138 203.6754,70.43322 203.6754,74.17769 C 203.6754,76.05829 205.27699,76.72795 208.49131,76.18664 C 213.30722,75.12078 217.45905,74.58506 220.94682,74.58506 C 237.01283,74.58506 245.05425,84.23361 245.05425,103.51398 C 245.05425,111.01965 241.56654,117.44831 234.60216,122.79994 C 228.70361,127.09128 222.9502,129.22858 217.32513,129.22858 C 207.41987,129.22858 199.24455,124.52987 192.81031,115.13801 C 187.18525,106.54973 184.90843,98.2349 185.98545,90.17676 C 190.80136,56.09711 220.40552,40.39378 274.78124,43.07797 C 292.99572,43.88713 308.92776,53.19528 322.59423,71.03033 C 336.24955,88.85978 343.08556,110.10446 343.08556,134.76995 C 343.08556,160.23901 337.05872,181.69016 325.00502,199.11784 C 311.33855,218.6884 292.58835,228.33695 268.75438,228.06908 C 258.03989,228.06908 247.86126,225.39607 238.21265,220.03327 C 233.39678,216.82453 228.70919,213.61022 224.14998,210.3903 C 221.73925,213.06891 218.92671,219.89935 215.71239,230.88162 C 212.76034,240.53018 211.2871,246.2836 211.2871,248.15863 C 211.2871,249.7602 212.76034,255.5192 215.71239,265.43562 C 218.92671,276.15004 221.73925,282.98048 224.14998,285.92694 C 228.70361,282.71262 233.3912,279.4983 238.21265,276.28397 C 247.86126,270.92676 258.03989,268.11423 268.75438,267.84636 C 292.58835,267.84636 311.33855,277.62885 325.00502,297.20498 C 337.05872,314.63266 343.08556,336.07823 343.08556,361.54729 C 343.08556,386.21278 336.24955,407.39049 322.59423,425.09161 C 308.92776,442.78155 292.99014,452.16783 274.78124,453.23927 C 220.40552,455.91788 190.80136,440.22014 185.98545,406.14048 C 184.90843,398.08793 187.18525,389.76751 192.81031,381.17924 C 199.23895,371.51951 207.4143,366.68687 217.32513,366.68687 C 222.9502,366.68687 228.70361,368.95809 234.60216,373.51731 C 241.56654,378.60666 245.05425,385.02972 245.05425,392.80326 C 245.05425,411.82135 236.60546,421.3304 219.73587,421.3304 C 216.52155,421.3304 212.77149,420.92861 208.48574,420.12503 C 205.54485,419.31587 204.07161,419.85159 204.07161,421.73218 C 204.07161,425.20879 208.61407,429.50014 217.72692,434.58949 C 228.71477,440.48242 240.89688,443.29495 254.29548,443.02709 C 268.22423,443.02709 278.93861,432.70888 286.43872,412.08922 C 292.32605,396.01201 295.27815,378.20487 295.27815,358.65105 C 295.27815,312.04334 282.6886,288.74506 257.50974,288.74506 C 238.49166,288.74506 225.35536,295.16812 218.1287,308.031 C 214.10522,317.67399 210.08731,327.18303 206.07499,336.55257 C 207.14085,306.01089 197.09609,276.55182 175.94069,248.15863 C 197.64297,219.76542 208.21787,190.02732 207.68215,158.95551 z " />
  </g>
</svg>
