<?xml version="1.0" encoding="UTF-8" standalone="no"?>
<!-- Created with Inkscape (http://www.inkscape.org/) -->

<svg
   xmlns:dc="http://purl.org/dc/elements/1.1/"
   xmlns:cc="http://creativecommons.org/ns#"
   xmlns:rdf="http://www.w3.org/1999/02/22-rdf-syntax-ns#"
   xmlns:svg="http://www.w3.org/2000/svg"
   xmlns="http://www.w3.org/2000/svg"
   xmlns:sodipodi="http://sodipodi.sourceforge.net/DTD/sodipodi-0.dtd"
   xmlns:inkscape="http://www.inkscape.org/namespaces/inkscape"
   version="1.0"
   width="45"
   height="127"
   id="svg2"
   sodipodi:version="0.32"
   inkscape:version="0.48.2 r9819"
   sodipodi:docname="Accolade.svg"
   inkscape:output_extension="org.inkscape.output.svg.inkscape">
  <metadata
     id="metadata20">
    <rdf:RDF>
      <cc:Work
         rdf:about="">
        <dc:format>image/svg+xml</dc:format>
        <dc:type
           rdf:resource="http://purl.org/dc/dcmitype/StillImage" />
      </cc:Work>
    </rdf:RDF>
  </metadata>
  <sodipodi:namedview
     inkscape:window-height="969"
     inkscape:window-width="1280"
     inkscape:pageshadow="2"
     inkscape:pageopacity="0.0"
     guidetolerance="10.0"
     gridtolerance="10.0"
     objecttolerance="10.0"
     borderopacity="1.0"
     bordercolor="#666666"
     pagecolor="#ffffff"
     id="base"
     width="45px"
     height="127px"
     inkscape:zoom="3.1780822"
     inkscape:cx="91.861317"
     inkscape:cy="64.127313"
     inkscape:window-x="-3"
     inkscape:window-y="-3"
     inkscape:current-layer="lines"
     showgrid="false"
     inkscape:window-maximized="1" />
  <defs
     id="defs19" />
  <g
     style="fill:#b3b3b3;stroke:#000000;stroke-width:1"
     id="lines"
     transform="matrix(0.25505998,0,0,1.0045999,10.579971,-0.3311938)">
    <path
       d="m 11.5,125.5 423.5,0"
       style="fill:none;stroke:#999999;stroke-width:1"
       id="path34"
       inkscape:connector-curvature="0" />
    <path
       d="m 11.5,116.5 423.5,0"
       style="fill:none;stroke:#999999;stroke-width:1"
       id="path38"
       inkscape:connector-curvature="0" />
    <path
       d="m 11.5,108.5 423.5,0"
       style="fill:none;stroke:#999999;stroke-width:1"
       id="path42"
       inkscape:connector-curvature="0" />
    <path
       d="m 11.5,99.5 423.5,0"
       style="fill:none;stroke:#999999;stroke-width:1"
       id="path46"
       inkscape:connector-curvature="0" />
    <path
       d="m 11.5,90.5 423.5,0"
       style="fill:none;stroke:#999999;stroke-width:1"
       id="path50"
       inkscape:connector-curvature="0" />
    <path
       d="m 11.5,54.5 423.5,0"
       style="fill:none;stroke:#999999;stroke-width:1"
       id="path62"
       inkscape:connector-curvature="0" />
    <path
       d="M 11.499672,45.5 435,45.5"
       style="fill:none;stroke:#999999;stroke-width:1"
       id="path66"
       inkscape:connector-curvature="0" />
    <path
       d="m 11.5,36.5 423.5,0"
       style="fill:none;stroke:#999999;stroke-width:1"
       id="path70"
       inkscape:connector-curvature="0" />
    <path
       d="m 11.5,27.5 423.5,0"
       style="fill:none;stroke:#999999;stroke-width:1"
       id="path74"
       inkscape:connector-curvature="0" />
    <path
       d="m 11.5,18.5 423.5,0"
       style="fill:none;stroke:#999999;stroke-width:1"
       id="path78"
       inkscape:connector-curvature="0" />
  </g>
  <path
     d="m 31.351487,1.0809801 c -0.06747,0.035497 -0.310085,0.2839743 -0.552701,0.5342266 -2.473782,2.5096225 -3.983659,5.691909 -4.367944,9.2273883 -0.0673,0.603445 -0.0673,2.053489 -0.03365,3.010127 0.141497,3.569202 0.687469,6.252758 2.102957,10.814095 l 0.168588,0.638942 -0.997554,1.309831 c -3.22872,4.208144 -4.469062,6.080599 -5.534086,8.347069 -1.065024,2.261145 -1.583904,4.312859 -1.651374,6.579328 -0.101119,4.131826 1.685195,8.029372 4.880094,10.462677 2.615452,2.016217 5.776702,2.834418 9.180568,2.335688 0.276437,-0.03372 0.519053,-0.06922 0.519053,-0.03372 l 0,1.732243 c 0,3.959666 -0.242616,5.62269 -1.065024,7.356708 -0.51888,1.095076 -1.139051,1.906177 -1.893989,2.474126 -0.856057,0.672664 -1.718844,0.956638 -2.783868,0.956638 -1.206521,0 -2.271545,-0.353193 -3.23545,-1.095076 -0.303356,-0.214755 -0.822408,-0.748982 -1.031375,-1.061354 l -0.168416,-0.214755 0.134767,0.06922 c 1.172872,0.424186 2.682749,-0.102941 3.478066,-1.198017 0.64709,-0.887419 0.822408,-1.98427 0.478674,-3.148564 -0.411204,-1.483766 -1.550428,-2.474126 -2.959186,-2.543345 -1.341288,-0.0426 -2.716398,0.630068 -3.437687,1.801462 -0.545972,0.88032 -0.687469,1.941674 -0.377383,3.320724 0.377383,1.836958 1.550255,3.466261 3.195071,4.458396 1.071754,0.672664 2.338843,1.061353 3.612833,1.130572 2.271545,0.06922 4.266826,-1.025857 5.709233,-3.217783 0.963905,-1.483766 1.509876,-3.182287 1.651373,-5.267723 0.13494,-1.380824 0.13494,-1.98427 0.168589,-3.959666 l 0,-2.017992 0.343734,-0.145536 c 1.408758,-0.56085 2.615279,-1.483766 3.646654,-2.793597 1.752493,-2.225648 2.339015,-5.157683 1.617725,-8.020498 -0.653819,-2.656934 -2.372663,-4.916304 -4.677857,-6.087698 -1.098845,-0.562624 -2.170598,-0.846598 -3.437687,-0.915817 l -0.586522,-0.04082 -0.134768,-0.596346 c -0.417933,-1.526362 -1.20652,-4.138925 -1.99528,-6.648548 l -0.175146,-0.498729 0.58635,-0.812877 c 2.440133,-3.216008 3.781422,-5.587193 4.644208,-7.958378 0.78876,-2.225649 1.065024,-4.561337 0.78876,-6.684044 C 36.683164,8.826378 34.580208,4.0556105 32.247923,1.4696699 31.829989,1.0117614 31.627751,0.90882076 31.351487,1.0809801 z M 33.481535,6.21204 c 0.0673,0.1047155 0.619998,1.2335132 0.788587,1.6222029 0.175146,0.4987298 0.343734,1.2068906 0.451583,1.7748391 0.06747,0.596346 0.06747,2.578841 0,3.182287 -0.377383,3.320723 -1.584077,6.219036 -4.199356,9.969271 -0.235886,0.353193 -0.478501,0.708161 -0.57962,0.846598 l -0.175318,0.214756 -0.101119,-0.38869 c -0.620171,-1.982496 -1.240169,-4.492118 -1.442407,-5.942162 -0.107848,-0.706386 -0.107848,-2.051714 -0.03382,-2.7581 0.310086,-2.337463 1.098845,-4.277362 2.507603,-6.0805983 0.343735,-0.4650078 1.166143,-1.3098312 1.617725,-1.664799 0.343735,-0.2839743 1.065024,-0.8111015 1.098673,-0.8111015 0,0 0.03365,0.035497 0.06747,0.035497 z m -3.060304,24.508753 c 0.788587,2.509623 1.550427,5.234001 1.516606,5.267723 0,0 -0.175146,0.06922 -0.310086,0.06922 -0.451582,0.104716 -1.20652,0.354968 -1.617725,0.569724 -0.754938,0.386915 -1.341288,0.775604 -1.92781,1.37905 -1.786141,1.872455 -2.439961,4.666052 -1.651374,7.175674 0.310086,1.061354 0.896435,2.017992 1.685195,2.829094 0.620171,0.637167 1.24017,1.095075 2.102956,1.517487 0.411204,0.214756 0.478674,0.214756 0.687641,0.214756 0.202238,0 0.235886,0 0.377383,-0.102941 0.202237,-0.145537 0.343734,-0.429511 0.343734,-0.672664 -0.03365,-0.319471 -0.141497,-0.422412 -0.586349,-0.708161 -2.130048,-1.240612 -3.161251,-3.292326 -2.581631,-5.336941 0.417934,-1.526362 1.685195,-2.656934 3.437688,-3.043849 0.350464,-0.104716 0.997554,-0.181034 1.037932,-0.145537 0,0 0.13494,0.49873 0.343907,1.490865 0.64709,2.7581 1.098672,5.336941 1.374937,7.812842 0.202237,1.552984 0.377555,3.640195 0.303355,3.716513 -0.03365,0.03372 -0.721117,0.138437 -1.375109,0.172159 -2.129875,0.138438 -3.949838,-0.214755 -5.77653,-1.164294 -1.031375,-0.534227 -1.85361,-1.171394 -2.64237,-1.948774 -1.273818,-1.343553 -1.995108,-2.827318 -2.170426,-4.492117 -0.0673,-0.457909 -0.03365,-1.517488 0.03382,-2.190152 0.384113,-3.148564 1.617725,-6.080599 4.199355,-9.761615 0.721117,-1.061354 2.750047,-3.778632 2.817517,-3.778632 l 0.377383,1.130572 z m 4.644208,9.191892 c 2.6491,0.603445 4.60383,2.793597 5.089061,5.62269 0.03382,0.250252 0.03382,0.534227 0.03382,1.061354 0,0.637167 0,0.775605 -0.06747,1.164294 -0.0742,0.283975 -0.141497,0.637168 -0.208967,0.784479 -0.411204,1.233513 -1.307639,2.474126 -2.339015,3.180512 -0.377382,0.27865 -1.098672,0.631843 -1.132321,0.596346 0,-0.03372 -0.03365,-0.241378 -0.03365,-0.456134 -0.107849,-1.380825 -0.411205,-4.028885 -0.72129,-5.908439 -0.276437,-1.76774 -0.862787,-4.768993 -1.172872,-6.009605 l -0.06747,-0.173935 0.101118,0.0355 c 0.06747,0 0.276437,0.03372 0.519053,0.102941 z"
     style="fill:#808080;fill-rule:evenodd;stroke:#000000;stroke-width:0pt;stroke-linecap:butt;stroke-linejoin:round;stroke-miterlimit:10"
     id="path114"
     inkscape:connector-curvature="0" />
  <path
     d="m 8.9257633,18.760152 c -1.199791,1.588481 -2.918635,5.304994 -3.606276,7.244894 -1.031203,4.069706 -1.374937,9.019732 -1.031203,13.797599 0.168416,1.586706 0.512323,5.122185 1.031203,7.951279 0.856057,6.724865 1.031375,9.553959 1.031375,12.383052 -0.175318,4.596834 -1.375109,8.304473 -3.269099,10.780373 -0.343906,0.353193 -0.512322,0.706386 -0.512322,0.88742 0,0.181033 0.168416,0.534226 0.512322,0.887419 1.89399,2.475901 3.093781,6.18354 3.269099,10.608213 0,3.001253 -0.175318,5.830347 -1.031375,12.374179 -0.51888,3.010127 -0.862787,6.54561 -1.031203,7.96015 -0.343734,4.95003 0,9.90006 1.031203,13.78873 0.856057,3.18228 3.95001,8.66654 4.8127967,8.66654 0.343734,0 0.687468,-0.3532 0.687468,-0.70816 0,-0.17926 -0.343734,-0.70639 -0.687468,-1.24062 -2.0625777,-3.00125 -2.9253647,-6.0096 -3.2690987,-10.60643 0,-2.8291 0.175146,-5.48426 1.031203,-12.20202 0.343734,-2.648063 0.687641,-5.83035 0.862786,-7.072737 0.687641,-8.485506 -0.687468,-15.737498 -4.125155,-21.040718 -0.519053,-0.70816 -0.862787,-1.414546 -0.862787,-1.414546 0,0 0.343734,-0.706386 0.862787,-1.414547 3.437687,-5.303219 4.812796,-12.555212 4.125155,-21.221751 -0.175145,-1.061354 -0.519052,-4.243641 -0.862786,-7.070959 -0.856057,-6.538508 -1.031203,-9.193667 -1.031203,-12.02276 0.343734,-4.596834 1.206521,-7.605186 3.2690987,-10.606439 0.687468,-1.061354 0.862787,-1.414547 0.519052,-1.76774 -0.519052,-0.354967 -0.8627857,-0.181033 -1.7255727,1.059579 z"
     style="fill:#000000;fill-rule:evenodd;stroke:#000000;stroke-width:0pt;stroke-linecap:butt;stroke-linejoin:round;stroke-miterlimit:10"
     id="path126"
     inkscape:connector-curvature="0" />
  <path
     d="m 27.837678,90.32599 c -2.53683,0.265141 -4.841162,1.959663 -6.022494,4.436011 -0.529277,1.114951 -0.793833,2.229902 -0.858444,3.45193 0,0.57787 0.03222,0.916095 0.167888,1.320605 0.458223,1.594244 2.071999,2.709194 3.717997,2.608924 1.581388,-0.10538 2.83361,-1.42089 3.059499,-3.152802 0.103277,-0.605065 -0.03222,-1.354598 -0.296944,-1.891678 -0.690556,-1.493967 -2.401166,-2.270694 -3.814831,-1.760808 l -0.264555,0.100278 0.06461,-0.205655 c 0.755167,-2.031046 2.175276,-3.518215 3.821274,-3.963515 1.581388,-0.40451 3.156332,0.03229 4.376331,1.188035 2.143053,2.099031 2.96283,6.334486 1.910554,10.058355 -0.232333,0.74444 -0.426,1.32061 -0.819777,2.09734 -0.793833,1.66053 -1.781499,3.01512 -3.298276,4.60767 -2.007553,2.03274 -4.608829,3.99751 -8.294603,6.22741 -0.690556,0.44529 -0.755167,0.51158 -0.755167,0.67815 0,0.23964 0.193666,0.4453 0.426,0.4453 0.03222,0 0.129056,-0.034 0.200111,-0.0663 0.06461,-0.0408 0.393777,-0.20735 0.722944,-0.33992 7.081048,-3.1528 11.52199,-6.3005 14.058655,-9.99207 1.516943,-2.23671 2.304332,-4.77254 2.304332,-7.381459 0,-4.607671 -2.768999,-7.655092 -7.539272,-8.333241 -0.9875,-0.171661 -2.142887,-0.205653 -2.865832,-0.13257 z m 12.741823,2.974337 c -0.593888,0.139369 -1.084333,0.644156 -1.219999,1.256019 -0.225889,0.948389 0.329168,1.898477 1.219999,2.097333 1.252222,0.305932 2.33672,-0.810719 2.039776,-2.097333 -0.193666,-0.917795 -1.116721,-1.487168 -2.039776,-1.256019 z m 0,8.438613 c -0.593888,0.13257 -1.084333,0.63736 -1.219999,1.24753 -0.225889,0.95008 0.329168,1.90018 1.219999,2.10582 1.252222,0.29914 2.33672,-0.81752 2.039776,-2.10582 -0.193666,-0.9093 -1.116721,-1.48717 -2.039776,-1.24753 z"
     style="fill:#808080;fill-rule:evenodd;stroke:#000000;stroke-width:0pt;stroke-linecap:butt;stroke-linejoin:round;stroke-miterlimit:10"
     id="path134"
     inkscape:connector-curvature="0" />
  <!--d="M 11.94922,18.866183 L 11.94922,125.11103" -->
  <path
     d="m 13.819439,18 0,108.09369"
     style="fill:none;stroke:#999999;stroke-width:1.50764655999999997px"
     id="path4180"
     inkscape:connector-curvature="0" />
</svg>
