<?xml version="1.0" encoding="UTF-8" standalone="no"?>
<!-- Created with Inkscape (http://www.inkscape.org/) -->

<svg
   xmlns:dc="http://purl.org/dc/elements/1.1/"
   xmlns:cc="http://creativecommons.org/ns#"
   xmlns:rdf="http://www.w3.org/1999/02/22-rdf-syntax-ns#"
   xmlns:svg="http://www.w3.org/2000/svg"
   xmlns="http://www.w3.org/2000/svg"
   xmlns:sodipodi="http://sodipodi.sourceforge.net/DTD/sodipodi-0.dtd"
   xmlns:inkscape="http://www.inkscape.org/namespaces/inkscape"
   id="svg2"
   version="1.1"
   inkscape:version="0.47 r22583"
   width="600"
   height="298.74991"
   sodipodi:docname="Music-doublewholenote.png">
  <metadata
     id="metadata8">
    <rdf:RDF>
      <cc:Work
         rdf:about="">
        <dc:format>image/svg+xml</dc:format>
        <dc:type
           rdf:resource="http://purl.org/dc/dcmitype/StillImage" />
        <dc:title></dc:title>
      </cc:Work>
    </rdf:RDF>
  </metadata>
  <defs
     id="defs6">
    <inkscape:perspective
       sodipodi:type="inkscape:persp3d"
       inkscape:vp_x="0 : 0.5 : 1"
       inkscape:vp_y="0 : 1000 : 0"
       inkscape:vp_z="1 : 0.5 : 1"
       inkscape:persp3d-origin="0.5 : 0.33333333 : 1"
       id="perspective10" />
  </defs>
  <sodipodi:namedview
     pagecolor="#ffffff"
     bordercolor="#666666"
     borderopacity="1"
     objecttolerance="10"
     gridtolerance="10"
     guidetolerance="10"
     inkscape:pageopacity="0"
     inkscape:pageshadow="2"
     inkscape:window-width="1223"
     inkscape:window-height="756"
     id="namedview4"
     showgrid="false"
     inkscape:zoom="2.4"
     inkscape:cx="212.70832"
     inkscape:cy="77.212406"
     inkscape:window-x="0"
     inkscape:window-y="33"
     inkscape:window-maximized="0"
     inkscape:current-layer="svg2">
    <inkscape:grid
       type="xygrid"
       id="grid2830"
       empspacing="5"
       visible="true"
       enabled="true"
       snapvisiblegridlinesonly="true" />
  </sodipodi:namedview>
  <g
     id="g2839"
     transform="matrix(2.9999995,0,0,2.9999995,839.37492,-64.416522)">
    <rect
       y="21.472178"
       x="-279.79169"
       height="3.5416667"
       width="199.58334"
       id="rect2820"
       style="opacity:0.3;fill:#000000;fill-opacity:1;stroke:none" />
    <rect
       style="opacity:0.3;fill:#000000;fill-opacity:1;stroke:none"
       id="rect2822"
       width="199.58334"
       height="3.5416667"
       x="-279.79169"
       y="45.430511" />
    <rect
       y="69.388847"
       x="-279.375"
       height="3.5416667"
       width="199.58334"
       id="rect2824"
       style="opacity:0.3;fill:#000000;fill-opacity:1;stroke:none" />
    <rect
       style="opacity:0.3;fill:#000000;fill-opacity:1;stroke:none"
       id="rect2826"
       width="199.58334"
       height="3.5416667"
       x="-279.63544"
       y="93.399254" />
    <rect
       y="117.51383"
       x="-279.53125"
       height="3.5416667"
       width="199.58334"
       id="rect2828"
       style="opacity:0.3;fill:#000000;fill-opacity:1;stroke:none" />
    <path
       sodipodi:nodetypes="cccccccccccccccccsccccccsscccccc"
       id="path2818"
       d="m -211,56 3,0 0,30 -3,0 0,-30 z m 8,0 3,0 0,12.417297 2.57505,-3.060272 c 6.43413,-7.646532 25.13123,-8.008376 32.94651,-0.637613 L -161,68 l 0,-12 3,0 0,30 -3,0 0,-11.889604 -2.57505,3.06027 c -2.88837,3.43264 -10.27853,6.09318 -16.92495,6.09318 -6.64642,0 -14.03658,-2.66054 -16.92495,-6.09318 L -200,74.110396 -200,86 l -3,0 0,-30 z m 29.60224,22.748146 c 3.05854,-4.66792 0.13433,-13.916407 -5.16332,-16.330174 -7.77978,-3.544708 -12.54851,2.495846 -9.30827,11.790804 2.2412,6.42911 11.35935,9.28925 14.47159,4.53937 z M -153,56 l 3,0 0,30 -3,0 0,-30 z"
       style="fill:#000000" />
  </g>
</svg>
