<?xml version="1.0" encoding="UTF-8" standalone="no"?>
<!-- Created with Inkscape (http://www.inkscape.org/) -->
<svg xmlns:svg="http://www.w3.org/2000/svg" xmlns="http://www.w3.org/2000/svg" version="1.0" viewBox="0 0 136 132" id="svg2">
  <defs id="defs5">
    <marker refX="0" refY="0" orient="auto" style="overflow:visible" id="Arrow1Mstart">
      <path d="M 0,0 L 5,-5 L -12.5,0 L 5,5 L 0,0 z " transform="matrix(0.4,0,0,0.4,4,0)" style="fill-rule:evenodd;stroke:black;stroke-width:1pt;marker-start:none" id="path3845"/>
    </marker>
    <marker refX="0" refY="0" orient="auto" style="overflow:visible" id="Arrow2Lstart">
      <path d="M 8.7185878,4.0337352 L -2.2072895,0.016013256 L 8.7185884,-4.0017078 C 6.97309,-1.6296469 6.9831476,1.6157441 8.7185878,4.0337352 z " transform="matrix(1.1,0,0,1.1,1.1,0)" style="font-size:12px;fill-rule:evenodd;stroke-width:0.625;stroke-linejoin:round" id="path3833"/>
    </marker>
  </defs>
  <path d="M 58.5625,7.28125 L 58.5625,93.90625 C 56.240792,91.051098 52.366655,89.468749 47.34375,89.46875 C 35.788549,89.46875 25.687501,98.962175 25.6875,109.40625 C 25.6875,117.39335 31.064557,121.375 39.34375,121.375 C 51.838897,121.375 60.944982,111.57949 61,101.5 C 61.000167,101.46943 61,101.43683 61,101.40625 L 61,31.3125 C 73.3039,37.762257 82.164464,44.19391 86.9375,53.53125 C 91.770411,62.985732 88.712629,76.07575 75.5625,88.03125 C 75.225623,89.275321 75.768797,89.91672 76.71875,89.875 C 100.05919,69.824202 96.283715,44.69325 75.0625,27.40625 C 68.147192,21.772979 63.115006,14.24255 61,7.28125 L 58.5625,7.28125 z " style="fill:black;fill-opacity:1;fill-rule:evenodd;stroke:none;stroke-width:4.5;stroke-linecap:round;stroke-linejoin:round;stroke-miterlimit:4;stroke-opacity:1" id="path1883"/>
  <path d="M 68.535316,108.11896 L 94.052045,108.11896" style="fill:none;fill-rule:evenodd;stroke:black;stroke-width:1px;stroke-linecap:butt;stroke-linejoin:miter;marker-start:url(#Arrow1Mstart);stroke-opacity:1" id="path2783"/>
  <path d="M 87.018588,35.821561 L 108.11896,21.591078" style="fill:none;fill-rule:evenodd;stroke:black;stroke-width:1px;stroke-linecap:butt;stroke-linejoin:miter;marker-start:url(#Arrow1Mstart);stroke-opacity:1" id="path2785"/>
  <path d="M 50.706319,65.100372 L 29.115242,50.052045" style="fill:none;fill-rule:evenodd;stroke:black;stroke-width:1px;stroke-linecap:butt;stroke-linejoin:miter;marker-start:url(#Arrow1Mstart);stroke-opacity:1" id="path2787"/>
  <path d="M 113.60732,26.171003 L 111.8495,26.171003 L 111.8495,14.969831 C 111.42632,15.373488 110.87131,15.777134 110.18446,16.180769 C 109.49761,16.584424 108.88075,16.887158 108.33388,17.088972 L 108.33388,15.389753 C 109.31695,14.927525 110.17632,14.36763 110.912,13.710066 C 111.64767,13.052527 112.16851,12.414507 112.4745,11.796003 L 113.60732,11.796003 L 113.60732,26.171003 z " style="font-size:20px;font-style:normal;font-weight:normal;fill:black;fill-opacity:1;stroke:none;stroke-width:1px;stroke-linecap:butt;stroke-linejoin:miter;stroke-opacity:1;font-family:Arial" id="text2789"/>
  <path d="M 26.098101,49.344006 L 26.098101,51.033459 L 16.63521,51.033459 C 16.622189,50.610282 16.690548,50.203381 16.840288,49.812756 C 17.081173,49.168226 17.466914,48.533461 17.997515,47.908459 C 18.528111,47.283462 19.294712,46.560807 20.297319,45.74049 C 21.853303,44.464455 22.904734,43.453714 23.451616,42.708263 C 23.998483,41.96283 24.271921,41.258078 24.271929,40.594006 C 24.271921,39.897402 24.022897,39.309838 23.524858,38.83131 C 23.026805,38.352807 22.377391,38.11355 21.576616,38.113537 C 20.730257,38.11355 20.053175,38.367456 19.545366,38.875256 C 19.037551,39.38308 18.78039,40.086204 18.773882,40.984631 L 16.967241,40.799084 C 17.090938,39.451439 17.556432,38.424422 18.363726,37.718029 C 19.171014,37.011663 20.254997,36.658473 21.615679,36.658459 C 22.98937,36.658473 24.076608,37.039332 24.877398,37.801037 C 25.678169,38.562768 26.078559,39.506778 26.078569,40.633068 C 26.078559,41.205995 25.961372,41.769145 25.727007,42.322521 C 25.492622,42.875915 25.103625,43.458596 24.560015,44.070568 C 24.016387,44.682554 23.113068,45.522397 21.850054,46.590099 C 20.795362,47.47552 20.118279,48.076105 19.818804,48.391857 C 19.519321,48.707615 19.271926,49.024997 19.076616,49.344006 L 26.098101,49.344006 z " style="font-size:12px;font-style:normal;font-weight:normal;fill:black;fill-opacity:1;stroke:none;stroke-width:1px;stroke-linecap:butt;stroke-linejoin:miter;stroke-opacity:1;font-family:Bitstream Vera Sans" id="text7400"/>
  <path d="M 98.163269,111.04599 L 99.921082,110.81161 C 100.1229,111.80771 100.46633,112.52548 100.95135,112.96494 C 101.43638,113.40439 102.0272,113.62412 102.72382,113.62411 C 103.55063,113.62412 104.24887,113.33766 104.81854,112.76474 C 105.3882,112.19183 105.67303,111.48219 105.67303,110.63583 C 105.67303,109.82855 105.40935,109.16286 104.88202,108.63876 C 104.35467,108.11468 103.6841,107.85264 102.8703,107.85263 C 102.53826,107.85264 102.12485,107.91774 101.63007,108.04794 L 101.82538,106.50497 C 101.94256,106.518 102.03696,106.52451 102.10858,106.52451 C 102.85727,106.52451 103.5311,106.3292 104.13007,105.93857 C 104.72902,105.54795 105.0285,104.94574 105.0285,104.13193 C 105.0285,103.48741 104.8104,102.95355 104.37421,102.53036 C 103.938,102.1072 103.37485,101.89561 102.68475,101.8956 C 102.00115,101.89561 101.43149,102.11046 100.97577,102.54013 C 100.52004,102.96983 100.22707,103.61436 100.09686,104.47372 L 98.33905,104.16122 C 98.553893,102.98285 99.042174,102.06977 99.803894,101.42197 C 100.56561,100.77419 101.51287,100.4503 102.64569,100.45029 C 103.42693,100.4503 104.14634,100.61794 104.80389,100.95322 C 105.46144,101.28852 105.96437,101.74587 106.31268,102.32529 C 106.66098,102.90473 106.83513,103.51996 106.83514,104.17099 C 106.83513,104.78949 106.66912,105.35264 106.3371,105.86044 C 106.00506,106.36826 105.51352,106.77191 104.86249,107.07138 C 105.70883,107.2667 106.36638,107.67197 106.83514,108.2872 C 107.30388,108.90244 107.53826,109.6723 107.53827,110.59677 C 107.53826,111.84677 107.08253,112.90634 106.17108,113.77548 C 105.25962,114.64462 104.10727,115.07919 102.71405,115.07919 C 101.45754,115.07919 100.41424,114.70484 99.584167,113.95615 C 98.754088,113.20745 98.280456,112.2374 98.163269,111.04599 L 98.163269,111.04599 z " style="font-size:12px;font-style:normal;font-weight:normal;fill:black;fill-opacity:1;stroke:none;stroke-width:1px;stroke-linecap:butt;stroke-linejoin:miter;stroke-opacity:1;font-family:Bitstream Vera Sans" id="text7404"/>
</svg>