<?xml version="1.0" encoding="UTF-8" standalone="no"?>
<!-- Created with Inkscape (http://www.inkscape.org/) -->

<svg
   xmlns:dc="http://purl.org/dc/elements/1.1/"
   xmlns:cc="http://creativecommons.org/ns#"
   xmlns:rdf="http://www.w3.org/1999/02/22-rdf-syntax-ns#"
   xmlns:svg="http://www.w3.org/2000/svg"
   xmlns="http://www.w3.org/2000/svg"
   xmlns:sodipodi="http://sodipodi.sourceforge.net/DTD/sodipodi-0.dtd"
   xmlns:inkscape="http://www.inkscape.org/namespaces/inkscape"
   width="200"
   height="200"
   id="svg2"
   version="1.1"
   inkscape:version="0.48.0 r9654"
   sodipodi:docname="New document 1">
  <defs
     id="defs4" />
  <sodipodi:namedview
     id="base"
     pagecolor="#ffffff"
     bordercolor="#666666"
     borderopacity="1.0"
     inkscape:pageopacity="0.0"
     inkscape:pageshadow="2"
     inkscape:zoom="3.905"
     inkscape:cx="100"
     inkscape:cy="100"
     inkscape:document-units="px"
     inkscape:current-layer="layer3"
     showgrid="false"
     fit-margin-top="0"
     fit-margin-left="0"
     fit-margin-right="0"
     fit-margin-bottom="0"
     inkscape:window-width="1680"
     inkscape:window-height="1000"
     inkscape:window-x="-8"
     inkscape:window-y="-8"
     inkscape:window-maximized="1" />
  <metadata
     id="metadata7">
    <rdf:RDF>
      <cc:Work
         rdf:about="">
        <dc:format>image/svg+xml</dc:format>
        <dc:type
           rdf:resource="http://purl.org/dc/dcmitype/StillImage" />
        <dc:title></dc:title>
      </cc:Work>
    </rdf:RDF>
  </metadata>
  <g
     inkscape:groupmode="layer"
     id="layer3"
     inkscape:label="note">
    <g
       id="g3799">
      <path
         sodipodi:nodetypes="ccssscccc"
         id="path11058"
         d="m 123.64755,51.9873 0,74.57327 c -3.618,-2.72682 -9.81627,-3.04969 -15.77084,-0.37549 -7.68929,3.45329 -12.015412,10.53917 -9.637748,15.83344 2.377688,5.29428 10.522278,6.83273 18.211588,3.37946 0.48057,-0.21582 0.986,-0.44542 1.43939,-0.6884 5.9506,-3.18919 9.46833,-8.62977 8.76159,-13.26755 l 0,-79.45473 z"
         style="font-size:medium;font-style:normal;font-variant:normal;font-weight:normal;font-stretch:normal;text-indent:0;text-align:start;text-decoration:none;line-height:normal;letter-spacing:normal;word-spacing:normal;text-transform:none;direction:ltr;block-progression:tb;writing-mode:lr-tb;text-anchor:start;baseline-shift:baseline;color:#000000;fill:#000000;fill-opacity:1;stroke:none;stroke-width:1.5;marker:none;visibility:visible;display:inline;overflow:visible;enable-background:accumulate;font-family:Sans;-inkscape-font-specification:Sans"
         inkscape:connector-curvature="0" />
      <path
         style="fill:#000000;fill-opacity:1"
         id="path4149"
         d="m 79.903152,145.91202 0,-17.00357 7.046381,-1.99531 0,16.91681 -7.046381,2.08207 z m 13.874322,-4.11353 -4.844386,1.42418 0,-16.91681 4.844386,-1.38804 0,-7.02698 -4.844386,1.38804 0,-17.28468 -1.983555,0 0,17.80881 -7.046381,2.07845 0,-16.80753 -1.870814,0 0,17.44734 -4.844386,1.39166 0,7.04144 4.844386,-1.38805 0,16.88428 -4.844386,1.38444 0,7.01252 4.844386,-1.38804 0,17.18708 1.870814,0 0,-17.80159 7.046381,-1.98808 0,16.72079 1.983555,0 0,-17.34975 4.844386,-1.39166 0,-7.03782 z"
         inkscape:connector-curvature="0" />
      <g
         id="g2994"
         transform="translate(213.58333,102.33333)">
        <path
           style="opacity:0.25;fill:#000000"
           d="m -113.58333,47.66667 -100,0 0,-2 0,-2 100,0 100.000003,0 0,2 0,2 -100.000003,0 z"
           id="path2855"
           inkscape:connector-curvature="0" />
        <path
           style="opacity:0.25;fill:#000000"
           d="m -113.58333,23.666667 -100,0 0,-2 0,-2 100,0 100.000003,0 0,2 0,2 -100.000003,0 z"
           id="path2853"
           inkscape:connector-curvature="0" />
        <path
           style="opacity:0.25;fill:#000000"
           d="m -113.58333,-0.33333304 -100,0 0,-1.99999996 0,-2 100,0 100.000003,0 0,2 0,1.99999996 -100.000003,0 z"
           id="path2851"
           inkscape:connector-curvature="0" />
        <path
           style="opacity:0.25;fill:#000000"
           d="m -113.58333,-24.333333 -100,0 0,-2 0,-2 100,0 100.000003,0 0,2 0,2 -100.000003,0 z"
           id="path2849"
           clip-path="none"
           inkscape:connector-curvature="0" />
        <g
           id="g3714"
           transform="translate(36,-66.5)">
          <path
             d="m -149.58333,18.166667 -100,0 0,-2 0,-2 100,0 100.000003,0 0,2 0,2 -100.000003,0 z"
             style="opacity:0.25;fill:#000000;fill-opacity:1"
             id="path2847"
             inkscape:connector-curvature="0" />
        </g>
      </g>
    </g>
  </g>
</svg>
