<?xml version="1.0" encoding="UTF-8"?>
<svg width="1215px" height="414px" viewBox="0 0 1215 414" version="1.1" xmlns="http://www.w3.org/2000/svg" xmlns:xlink="http://www.w3.org/1999/xlink">
    <!-- Generator: Sketch 49.3 (51167) - http://www.bohemiancoding.com/sketch -->
    <title>Untitled</title>
    <desc>Created with Sketch.</desc>
    <defs></defs>
    <g id="Page-1" stroke="none" stroke-width="1" fill="none" fill-rule="evenodd">
        <g id="muzirus-svetle-logo-male" fill-rule="nonzero">
            <path d="M499.1,182.2 C499.1,182.2 508.3,180.8 518.7,181.2 C530.4,181.7 532.8,183.5 538,183.8 C540.1,183.9 541.6,181.6 541.6,179.5 L541.6,39.1 C541.6,36.7 539.7,34.8 537.3,34.8 L498.5,34.8 C496.1,34.8 494.2,36.7 494.2,39.1 L494.2,178 C494,180.7 496.4,182.7 499.1,182.2 Z" id="Shape" fill="#FFFFFF"></path>
            <g id="Group" transform="translate(0.000000, 204.000000)" fill="#FFFFFF">
                <path d="M546,178.3 C547.4,165.3 548.6,152.3 549.3,139.2 C549.7,132.7 549.9,126.2 549.9,119.7 L549.9,114.8 L549.7,110 L549.3,105.2 C549.1,103.7 548.9,102.2 548.5,100.7 C547.8,97.7 546.7,94.9 545.3,92.2 C543.9,89.5 542.1,87.1 540,84.8 C535.8,80.4 530.5,77 524.7,74.8 C518.9,72.6 512.7,71.4 506.4,71.3 L504,71.3 L501.6,71.4 L496.8,71.8 L492,72.4 L487.2,73.2 C474.5,75.5 462,79.2 449.6,83.3 C437.2,87.4 424.8,91.9 412.5,96.3 C400.1,100.7 387.7,105 375.2,109.1 C362.7,113.2 350.1,117.1 337.5,120.7 C312.2,128 286.5,134.1 260.7,139.2 C247.8,141.7 234.8,144 221.9,146.3 C209,148.5 196,150.7 183,152.7 C157,156.6 130.9,160.1 104.9,163.4 C91.9,165.1 78.8,166.6 65.8,168.1 L46.2,170.3 C39.7,171 33.1,171.7 26.6,172.3 C26.4,172.3 26.2,172.2 26.2,171.9 C26.2,171.7 26.3,171.5 26.5,171.5 C78.4,163.2 130.6,157.1 182.4,148.6 C208.3,144.4 234.2,139.8 259.9,134.7 C285.6,129.5 311.1,123.3 336.2,116 C348.8,112.4 361.3,108.4 373.7,104.3 C386.1,100.2 398.5,95.8 410.9,91.4 C423.3,87 435.6,82.5 448.1,78.3 C460.6,74.1 473.3,70.2 486.5,67.8 L491.5,67 L496.5,66.4 L501.5,66 L504.1,65.9 L506.7,65.9 C513.5,66 520.4,67.2 526.9,69.7 C533.4,72.1 539.4,76 544.3,81.1 C546.7,83.7 548.8,86.5 550.5,89.6 C552.2,92.7 553.4,96.1 554.2,99.5 C554.6,101.2 554.9,103 555.1,104.7 L555.5,109.8 L555.7,114.8 L555.8,119.8 C555.8,126.4 555.6,133.1 555.2,139.6 C554.5,152.8 553.4,165.9 552,179 C551.8,180.6 550.3,181.8 548.7,181.7 C547,181.5 545.8,180 546,178.3 Z" id="Shape"></path>
                <path d="M558.6,183.7 C560,170 561,156.2 561.6,142.5 C561.9,135.6 562.1,128.7 562.1,121.9 C562,115.1 561.9,108.2 560.9,101.6 C558.9,88.6 552.4,76.1 542.4,67.7 C537.4,63.5 531.5,60.2 525.3,58.2 C519,56.1 512.4,55.3 505.7,55.3 C492.2,55.3 478.8,58.2 465.7,62.2 C452.6,66.2 439.7,71.2 426.8,76.1 C413.9,81.1 401,86.1 387.9,90.8 C374.9,95.5 361.7,100 348.4,104.1 C321.9,112.3 294.9,119.1 267.6,124.4 C240.3,129.6 213,134.2 185.5,138.1 C158,142 130.5,145.1 102.9,148 C89.1,149.5 75.3,150.7 61.5,152.1 L40.8,153.9 C33.9,154.5 27,155 20.1,155.5 C19.9,155.5 19.7,155.4 19.7,155.1 C19.7,154.9 19.8,154.7 20,154.7 C74.9,147.3 130.1,142.3 184.8,134 C212.1,129.9 239.4,125.2 266.6,119.9 C293.7,114.4 320.5,107.7 346.8,99.4 C360,95.3 373,90.8 386,86 C399,81.3 411.8,76.2 424.8,71.2 C437.7,66.2 450.7,61.2 464,57 C477.3,52.9 491.3,49.8 505.5,49.7 C512.6,49.7 519.9,50.6 526.8,52.8 C533.7,55 540.2,58.6 545.8,63.3 C551.4,68 556,73.8 559.5,80.1 C563,86.5 565.3,93.4 566.4,100.6 C567.5,107.7 567.7,114.7 567.8,121.7 C567.9,128.7 567.7,135.7 567.4,142.6 C566.8,156.5 565.8,170.3 564.5,184.2 C564.3,185.8 562.9,187.1 561.2,186.9 C559.7,186.9 558.4,185.4 558.6,183.7 Z" id="Shape"></path>
                <path d="M571.2,189.1 C572.5,174.7 573.5,160.1 574,145.6 C574.3,138.3 574.4,131.1 574.3,123.9 C574.2,116.7 574,109.4 573.1,102.4 C572.2,95.4 570.6,88.4 568.1,81.8 C565.7,75.2 562.4,68.9 558.3,63.2 C554.2,57.5 549.1,52.6 543.3,48.8 C540.4,46.9 537.3,45.2 534.1,43.9 C530.9,42.6 527.6,41.4 524.2,40.7 C517.4,39.1 510.3,38.7 503.2,39 C496.1,39.2 489,40.2 482,41.8 C468,45 454.5,50.2 441,55.6 C427.5,61.1 414.1,66.9 400.6,72.3 C387,77.8 373.3,82.9 359.4,87.5 C331.6,96.8 303.2,104.2 274.5,109.8 C245.8,115.3 217,120 188,123.9 C173.5,125.8 159,127.5 144.5,129.1 C130,130.6 115.4,132 100.9,133.2 C71.8,135.6 42.7,137.5 13.6,138.9 C13.4,138.9 13.2,138.7 13.2,138.5 C13.2,138.3 13.3,138.1 13.6,138.1 C20.9,137.3 28.1,136.7 35.4,136 L57.2,134 C71.7,132.7 86.2,131.3 100.7,130 C115.2,128.6 129.7,127.1 144.2,125.5 C158.7,123.8 173.1,122 187.5,119.9 C201.9,117.8 216.3,115.6 230.7,113.2 C237.9,111.9 245.1,110.8 252.2,109.4 L262.9,107.4 L273.6,105.3 C302.1,99.6 330.3,92.2 357.8,82.9 C371.6,78.2 385.2,73.1 398.6,67.7 C412.1,62.3 425.4,56.5 439,50.9 C452.5,45.4 466.3,40 480.8,36.7 C488,35 495.5,34 502.9,33.7 C506.6,33.6 510.4,33.6 514.1,33.9 C517.9,34.1 521.6,34.7 525.3,35.5 C529,36.3 532.6,37.5 536.2,39 C539.7,40.5 543.1,42.3 546.3,44.4 C552.7,48.6 558.2,54 562.7,60.1 C567.2,66.2 570.7,73 573.3,80 C575.9,87 577.7,94.4 578.7,101.8 C579.7,109.2 579.9,116.6 580,124 C580.1,131.4 580,138.7 579.8,146 C579.3,160.7 578.4,175.2 577.2,189.8 C577.1,191.5 575.6,192.7 574,192.5 C572.3,192.2 571.1,190.8 571.2,189.1 Z" id="Shape"></path>
                <path d="M583.8,194.4 C585,179.2 585.9,163.9 586.3,148.7 C586.5,141.1 586.6,133.4 586.5,125.8 C586.4,118.2 586,110.6 585.2,103.1 C584.4,95.6 582.9,88.2 580.9,81 C578.9,73.8 576.3,66.7 572.9,60.1 C571.2,56.8 569.3,53.6 567.2,50.6 C565.1,47.6 562.8,44.7 560.2,42.1 C557.6,39.5 554.9,37 551.9,34.9 C548.9,32.8 545.8,30.9 542.5,29.3 C529.2,22.9 513.8,21.5 499,22.7 C484.1,24 469.6,28.9 455.6,34.7 C441.5,40.5 427.7,47.1 413.6,53.3 C399.5,59.5 385.3,65.4 370.8,70.6 C341.8,81.1 312,89.1 281.8,94.9 C251.6,100.6 221.3,105.6 190.9,109.5 C160.5,113.5 129.9,116.4 99.3,118.5 L87.8,119.3 L76.3,119.9 C68.6,120.3 61,120.6 53.3,120.9 C38,121.4 22.6,121.8 7.3,122 C7.1,122 6.9,121.8 6.9,121.6 C6.9,121.4 7.1,121.2 7.3,121.2 C37.9,119.2 68.5,117.6 99.1,115.2 C129.6,112.8 160.1,109.6 190.4,105.4 C220.7,101.2 251,96.2 281,90.4 C311,84.4 340.5,76.4 369.2,66 C383.6,60.8 397.6,54.9 411.6,48.7 C425.6,42.5 439.4,35.8 453.6,29.9 C460.7,26.9 468,24.2 475.5,22 C483,19.8 490.7,18.2 498.5,17.4 C506.3,16.6 514.2,16.8 522,17.8 C529.8,18.8 537.6,21 544.8,24.4 C548.4,26.1 551.8,28.2 555.1,30.5 C558.3,32.8 561.4,35.5 564.1,38.3 C566.9,41.1 569.4,44.2 571.7,47.5 C574,50.7 576.1,54.1 577.9,57.6 C581.5,64.6 584.3,72 586.4,79.5 C588.5,87 590,94.7 590.9,102.5 C591.8,110.3 592.2,118 592.3,125.7 C592.4,133.4 592.4,141.1 592.2,148.8 C591.8,164.2 591,179.5 589.8,194.9 C589.7,196.6 588.2,197.8 586.6,197.7 C584.9,197.6 583.7,196.1 583.8,194.4 Z" id="Shape"></path>
                <path d="M596.4,199.8 C597.6,183.8 598.4,167.8 598.7,151.8 C598.9,143.8 598.9,135.8 598.7,127.8 C598.5,119.8 598.1,111.8 597.3,104 C597.1,102 596.8,100.1 596.5,98.1 C596.2,96.1 595.9,94.2 595.6,92.2 C594.9,88.3 594.2,84.4 593.3,80.5 C591.6,72.8 589.4,65.1 586.5,57.8 C583.6,50.5 580,43.5 575.6,37.1 C571.1,30.7 565.8,25 559.5,20.4 C553.3,15.8 546.3,12.3 538.9,9.9 C531.5,7.5 523.7,6.3 515.9,5.8 C508.1,5.3 500.2,5.8 492.5,7.2 C484.8,8.6 477.2,10.9 469.8,13.8 C462.4,16.6 455.1,20 447.9,23.5 L426.3,34 C411.8,41.1 397.1,47.8 382,53.6 C351.9,65.4 320.6,74 288.9,80.2 C273,83.2 257.2,85.9 241.3,88.5 C233.3,89.8 225.4,90.9 217.4,92.2 L205.4,93.9 C201.4,94.5 197.4,95 193.4,95.5 L181.4,97 C177.4,97.5 173.4,97.9 169.4,98.4 C161.4,99.3 153.4,100.1 145.4,100.9 C129.4,102.4 113.3,103.7 97.2,104.5 C81.1,105.4 65,106 48.9,106.1 C32.8,106.2 16.7,106.1 0.6,105.4 C0.4,105.4 0.2,105.2 0.2,105 C0.2,104.8 0.4,104.6 0.6,104.6 C32.8,104.2 64.9,103.2 97,101.1 C113,100.1 129,98.6 145,97 C153,96.1 161,95.3 169,94.3 C173,93.8 177,93.4 181,92.8 L192.9,91.2 C224.7,86.9 256.5,81.6 288,75.6 C319.5,69.4 350.4,60.8 380.2,49 C395.1,43.1 409.7,36.5 424.1,29.4 L445.8,18.7 C453.1,15.2 460.4,11.8 468,8.8 C475.6,5.9 483.5,3.4 491.6,1.9 C499.7,0.4 508,-0.1 516.3,0.3 C524.5,0.8 532.7,2 540.7,4.5 C548.6,7 556.2,10.8 562.9,15.8 C569.6,20.8 575.4,26.9 580.2,33.7 C585,40.5 588.8,47.9 591.8,55.5 C594.8,63.2 597.1,71 598.9,79 C599.8,83 600.6,87 601.3,91 C601.6,93 602,95 602.3,97 C602.6,99 602.9,101.1 603.1,103.1 C604,111.2 604.4,119.3 604.6,127.4 C604.8,135.5 604.8,143.6 604.7,151.7 C604.4,167.9 603.7,184 602.5,200.1 C602.4,201.8 600.9,203 599.3,202.9 C597.5,202.9 596.3,201.5 596.4,199.8 Z" id="Shape"></path>
            </g>
            <g id="Group" transform="translate(610.000000, 204.000000)" fill="#FFFFFF">
                <path d="M53.1,179 C51.7,165.9 50.6,152.8 49.9,139.6 C49.6,133 49.3,126.4 49.3,119.8 L49.4,114.8 L49.6,109.8 L50,104.7 C50.2,103 50.5,101.2 50.9,99.5 C51.7,96.1 53,92.7 54.6,89.6 C56.3,86.5 58.4,83.6 60.8,81.1 C65.7,76 71.7,72.2 78.2,69.7 C84.7,67.2 91.6,66 98.4,65.9 L101,65.9 L103.6,66 L108.6,66.4 L113.6,67 L118.6,67.8 C131.8,70.2 144.5,74.1 157,78.3 C169.5,82.5 181.8,87 194.2,91.4 C206.6,95.8 218.9,100.2 231.4,104.3 C243.8,108.4 256.3,112.3 268.9,116 C294.1,123.3 319.5,129.5 345.2,134.7 C370.9,139.7 396.8,144.3 422.7,148.6 C474.5,157.1 526.7,163.2 578.6,171.5 C578.8,171.5 579,171.7 578.9,171.9 C578.9,172.1 578.7,172.2 578.5,172.2 C572,171.6 565.4,170.9 558.9,170.2 L539.3,168 C526.3,166.4 513.2,165 500.2,163.3 C474.1,160 448.1,156.5 422.1,152.6 C409.1,150.6 396.1,148.4 383.2,146.2 C370.3,143.9 357.3,141.6 344.4,139.1 C318.6,134 292.9,127.9 267.6,120.6 C254.9,117 242.4,113.1 229.9,109 C217.4,104.9 205,100.6 192.6,96.2 C180.2,91.8 167.9,87.4 155.5,83.2 C143.1,79.1 130.6,75.3 117.9,73.1 L113.1,72.3 L108.3,71.7 L103.5,71.3 L101.1,71.2 L98.7,71.2 C92.4,71.3 86.2,72.5 80.4,74.7 C74.6,76.9 69.3,80.3 65.1,84.7 C63,86.9 61.2,89.4 59.8,92.1 C58.4,94.8 57.3,97.6 56.6,100.6 C56.2,102.1 56,103.6 55.8,105.1 L55.4,109.9 L55.2,114.7 L55.2,119.6 C55.2,126.1 55.5,132.6 55.8,139.1 C56.5,152.1 57.7,165.2 59.1,178.2 C59.3,179.8 58.1,181.3 56.4,181.5 C54.7,181.7 53.3,180.7 53.1,179 Z" id="Shape"></path>
                <path d="M40.5,184.3 C39.2,170.4 38.2,156.6 37.6,142.7 C37.3,135.7 37.1,128.8 37.2,121.8 C37.3,114.8 37.5,107.8 38.6,100.7 C39.7,93.6 42.1,86.6 45.5,80.2 C48.9,73.8 53.5,68 59,63.3 C64.5,58.6 71.1,54.9 78,52.8 C84.9,50.6 92.2,49.8 99.4,49.9 C113.6,50.3 127.5,53.4 140.8,57.6 C154.1,61.8 167.1,66.8 180,71.7 C192.9,76.7 205.8,81.7 218.8,86.4 C231.8,91.1 244.9,95.6 258.1,99.6 C284.5,107.8 311.3,114.5 338.4,120 C365.5,125.3 392.8,130 420.2,134.1 C474.9,142.4 530.1,147.4 585,154.8 C585.2,154.8 585.4,155 585.3,155.2 C585.3,155.4 585.1,155.6 584.9,155.5 C578,155 571.1,154.4 564.2,153.9 L543.5,152.1 C529.7,150.8 515.9,149.5 502.1,148 C474.5,145.1 447,142 419.5,138.1 C392,134.2 364.7,129.6 337.4,124.4 C310.2,119 283.1,112.4 256.6,104.2 C243.3,100.1 230.1,95.7 217.1,91 C204,86.3 191.1,81.3 178.1,76.4 C165.2,71.5 152.3,66.5 139.1,62.5 C126,58.5 112.6,55.5 99.1,55.2 C92.4,55.1 85.8,55.8 79.5,57.9 C73.2,59.9 67.4,63.1 62.4,67.4 C52.4,76 46,88.5 44,101.5 C43,108.1 42.8,115 42.8,121.8 C42.7,128.7 43,135.5 43.3,142.4 C43.9,156.2 45,170 46.3,183.7 C46.5,185.3 45.3,186.8 43.6,187 C42.1,187.2 40.7,186 40.5,184.3 Z" id="Shape"></path>
                <path d="M27.9,189.6 C26.6,175 25.7,160.4 25.3,145.8 C25.1,138.5 24.9,131.1 25.1,123.8 C25.2,116.4 25.5,109.1 26.4,101.6 C27.3,94.2 29.1,86.8 31.8,79.8 C34.4,72.8 37.9,66 42.4,59.9 C46.9,53.8 52.4,48.4 58.8,44.2 C62,42.1 65.4,40.3 68.9,38.8 C72.4,37.3 76,36.1 79.8,35.3 C83.5,34.5 87.3,33.9 91,33.7 C94.8,33.5 98.5,33.4 102.2,33.5 C109.7,33.8 117.1,34.9 124.3,36.5 C138.8,39.8 152.6,45.2 166.1,50.7 C179.6,56.3 193,62.1 206.5,67.5 C220,73 233.6,78.1 247.3,82.7 C274.8,92 303,99.4 331.5,105.1 L342.2,107.2 L352.9,109.2 C360.1,110.5 367.2,111.7 374.4,113 C388.8,115.4 403.2,117.6 417.6,119.7 C432,121.7 446.5,123.6 460.9,125.3 C475.4,126.9 489.9,128.4 504.4,129.8 C518.9,131.1 533.4,132.6 547.9,133.8 L569.7,135.8 C577,136.5 584.2,137.2 591.5,137.9 C591.7,137.9 591.9,138.1 591.8,138.3 C591.8,138.5 591.6,138.7 591.4,138.7 C562.3,137.3 533.1,135.4 504.1,133 C489.6,131.8 475,130.4 460.5,128.9 C446,127.4 431.5,125.6 417,123.7 C388,119.8 359.3,115.1 330.5,109.6 C301.8,104 273.4,96.6 245.6,87.3 C231.7,82.7 218,77.6 204.4,72.1 C190.8,66.7 177.4,60.9 164,55.4 C150.5,49.9 137,44.7 123,41.6 C116,40 108.9,39 101.8,38.8 C94.7,38.6 87.6,39 80.8,40.5 C77.4,41.3 74.1,42.4 70.9,43.7 C67.7,45 64.6,46.7 61.7,48.6 C55.9,52.5 50.9,57.4 46.7,63 C42.6,68.7 39.3,75 36.9,81.6 C34.5,88.2 32.8,95.2 31.9,102.2 C31,109.2 30.8,116.5 30.7,123.7 C30.6,130.9 30.7,138.2 31,145.4 C31.5,159.9 32.5,174.4 33.8,188.9 C33.9,190.6 32.7,192 31.1,192.2 C29.5,192.5 28.1,191.3 27.9,189.6 Z" id="Shape"></path>
                <path d="M15.3,194.9 C14.1,179.5 13.3,164.2 12.9,148.8 C12.7,141.1 12.7,133.4 12.8,125.7 C12.9,118 13.3,110.2 14.2,102.5 C15.1,94.7 16.6,87.1 18.7,79.5 C20.8,72 23.6,64.6 27.2,57.6 C29,54.1 31.1,50.7 33.4,47.5 C35.7,44.3 38.2,41.2 41,38.3 C43.8,35.5 46.8,32.8 50,30.5 C53.3,28.2 56.7,26.1 60.3,24.4 C67.5,21 75.3,18.8 83.1,17.8 C90.9,16.8 98.8,16.7 106.6,17.4 C114.4,18.1 122.1,19.8 129.6,22 C137.1,24.2 144.3,27 151.5,29.9 C165.8,35.9 179.6,42.5 193.5,48.7 C207.5,54.9 221.6,60.8 235.9,66 C264.6,76.5 294.1,84.5 324.1,90.4 C354.1,96.2 384.4,101.2 414.7,105.4 C445,109.7 475.5,112.9 506,115.2 C536.5,117.6 567.1,119.2 597.8,121.2 C598,121.2 598.2,121.4 598.2,121.6 C598.2,121.8 598,122 597.8,122 C582.5,121.8 567.1,121.4 551.8,120.9 C544.1,120.6 536.5,120.3 528.8,119.9 L517.3,119.3 L505.8,118.5 C475.2,116.4 444.6,113.5 414.2,109.5 C383.7,105.5 353.5,100.6 323.3,94.9 C293.1,89 263.3,81.1 234.3,70.6 C219.8,65.4 205.6,59.5 191.5,53.3 C177.4,47.1 163.6,40.5 149.5,34.7 C135.5,28.9 121,24.1 106.1,22.7 C91.3,21.4 75.9,22.9 62.6,29.3 C59.3,30.9 56.1,32.8 53.2,34.9 C50.2,37.1 47.5,39.5 44.9,42.1 C42.3,44.7 40,47.6 37.9,50.6 C35.8,53.6 33.8,56.8 32.2,60.1 C28.8,66.7 26.2,73.8 24.2,81 C22.2,88.2 20.7,95.7 19.9,103.1 C19.1,110.6 18.7,118.2 18.6,125.8 C18.5,133.4 18.5,141 18.8,148.7 C19.2,164 20.1,179.3 21.3,194.4 C21.4,196.1 20.2,197.5 18.6,197.6 C16.9,197.8 15.5,196.6 15.3,194.9 Z" id="Shape"></path>
                <path d="M2.7,200.3 C1.6,184.2 0.8,168.1 0.5,151.9 C0.4,143.8 0.4,135.7 0.6,127.6 C0.8,119.5 1.2,111.4 2.1,103.3 C2.3,101.3 2.6,99.2 2.9,97.2 C3.2,95.2 3.5,93.2 3.9,91.2 C4.6,87.2 5.4,83.2 6.3,79.2 C8.1,71.2 10.4,63.3 13.4,55.7 C16.4,48.1 20.2,40.6 25,33.9 C29.8,27.1 35.6,21 42.3,16 C49,11 56.6,7.2 64.5,4.7 C72.4,2.2 80.7,0.9 88.9,0.5 C97.1,1.39110945e-13 105.4,0.6 113.6,2.1 C121.7,3.6 129.6,6.1 137.2,9 C144.8,12 152.2,15.4 159.4,18.9 L181.1,29.6 C195.5,36.7 210.1,43.3 225,49.2 C254.8,61 285.8,69.6 317.2,75.8 C348.7,81.8 380.5,87.1 412.3,91.4 L424.2,93 C428.2,93.5 432.2,94 436.2,94.5 C444.2,95.5 452.2,96.3 460.2,97.2 C476.2,98.8 492.2,100.3 508.2,101.3 C540.3,103.5 572.4,104.4 604.6,104.8 C604.8,104.8 605,105 605,105.2 C605,105.4 604.8,105.6 604.6,105.6 C588.5,106.2 572.4,106.4 556.3,106.3 C540.2,106.1 524.1,105.6 508,104.7 C491.9,103.8 475.8,102.5 459.8,101.1 C451.8,100.3 443.8,99.6 435.8,98.6 C431.8,98.1 427.8,97.7 423.8,97.2 L411.8,95.7 C407.8,95.2 403.8,94.7 399.8,94.1 L387.8,92.4 C379.8,91.2 371.9,90 363.9,88.7 C348,86.1 332.1,83.4 316.3,80.4 C284.6,74.3 253.3,65.7 223.2,53.8 C208.1,47.9 193.4,41.2 178.9,34.2 L157.2,23.6 C150,20.1 142.7,16.8 135.3,13.9 C127.9,11.1 120.3,8.7 112.6,7.3 C104.9,5.9 97,5.4 89.2,5.9 C81.4,6.4 73.6,7.6 66.2,10 C58.8,12.4 51.8,15.9 45.6,20.5 C39.4,25.1 34,30.8 29.5,37.2 C25,43.6 21.4,50.6 18.6,57.9 C15.7,65.2 13.5,72.8 11.8,80.6 C10.9,84.5 10.2,88.4 9.5,92.3 C9.2,94.3 8.9,96.2 8.6,98.2 C8.3,100.2 8.1,102.1 7.8,104.1 C6.9,112 6.6,120 6.4,127.9 C6.2,135.9 6.3,143.9 6.4,151.9 C6.7,167.9 7.5,184 8.7,199.9 C8.8,201.6 7.6,203 5.9,203.1 C4.3,203.2 2.9,201.9 2.7,200.3 Z" id="Shape"></path>
            </g>
            <path d="M562.9,204.5 C561.2,204.5 559.8,203.2 559.7,201.5 L557.4,39.8 C557.4,36.4 560,33.8 563.4,33.7 L626.1,33.7 C634.9,33.7 643,35.2 650.2,38.3 C657.4,41.4 663.6,45.8 668.6,51.7 C673.7,57.6 677.6,64.7 680.3,73.3 C683,81.8 684.4,91.5 684.4,102.2 C684.4,125.7 674.6,142.9 649.5,157.2 C647.9,158.1 647.5,160.1 648.5,161.6 L672,191.8 C673.4,193.9 671.7,196 669.2,196.6 C662.3,198.2 657.3,200.1 650.4,203.6 C641.5,208.2 637.5,212.8 634,214.5 C632.4,215.3 630.6,214.6 629.8,213 L607.7,166 C607.2,164.9 606.1,164.2 604.9,164.2 C603.2,164.2 601.9,165.5 601.9,167.2 L602.2,200.7 C602.2,202.4 600.8,203.8 599.1,203.8 L562.9,204.5 Z M602,80.8 L602,122.6 C602,124.3 603.4,125.7 605.1,125.7 L621.1,125.7 C621.2,125.7 621.3,125.7 621.4,125.7 C635.5,124.6 638.2,108.7 638.2,97.7 C638.2,84.9 628.1,77.7 621.3,77.7 L605.2,77.7 C603.4,77.7 602,79.1 602,80.8 Z" id="Shape" fill="#FFFFFF"></path>
            <path d="M607.8,414 C623.3,414 648.6,410.6 667.4,396.6 C673.3,392.2 683,382.7 685.1,360.1 C685.8,352.6 685.2,346 685.3,341.5 C685.4,338.8 685.6,333.5 688.3,331.3 C691.2,328.9 697.2,329.5 700.2,329.9 L1214.4,397.9 C1214.6,397.9 1214.7,397.8 1214.7,397.7 L1214.8,396.8 C1214.9,395.9 1214.3,395.1 1213.4,394.9 L687.2,309 C684.6,308.7 680.7,309.1 678.2,311.2 C675.9,313.2 673,315.7 671.9,320.8 C671.1,324.5 672.2,328.7 672.3,334.6 C672.7,354.1 673.7,373.1 656.9,386.1 C641,398.5 621.1,399.5 607.8,399.5 C594.5,399.5 574.6,398.5 558.7,386.1 C541.9,373 542.9,354 543.3,334.6 C543.4,328.6 544.6,324.5 543.7,320.8 C542.6,315.8 539.7,313.2 537.4,311.2 C534.9,309.1 531,308.7 528.4,309 L2.1,394.8 C1.2,394.9 0.6,395.8 0.7,396.7 L0.8,397.6 C0.8,397.8 1,397.9 1.1,397.8 L515.3,329.8 C518.3,329.4 524.3,328.8 527.2,331.2 C529.9,333.5 530.1,338.8 530.2,341.4 C530.3,345.9 529.7,352.5 530.4,360 C532.5,382.6 542.2,392 548.1,396.5 C567,410.6 592.3,414 607.8,414 Z" id="Shape" fill="#228766"></path>
            <path d="M126.1,111.7 L144.9,21.6 C145.2,20 146.6,19 148,19.2 L198.3,25.3 C199.8,25.5 200.8,26.8 200.8,28.4 L200.8,273.7 C200.8,274.9 200,275.9 198.9,276 L161.2,280.4 C157.4,280.8 154.1,277.6 154.1,273.5 L154.1,197.9 C154.1,197.5 153.6,197.4 153.5,197.8 L147.2,222.9 L130.5,279.4 C129.9,281.4 128.2,282.7 126.4,282.7 L122.5,282.7 C120.6,282.7 119,281.4 118.5,279.5 L101.3,219.1 L96.8,200.1 C96.6,199.4 95.7,199.5 95.7,200.3 L95.7,277.2 C95.7,281.4 92.6,284.8 88.8,284.7 L67.9,284.6 C57.7,284.6 49.5,275.5 49.5,264.4 L49.5,5 C49.5,3.1 51.1,1.6 52.8,1.9 L102.4,10.9 C103.5,11.1 104.5,12 104.7,13.3 L125.5,111.8 C125.7,112 126,112 126.1,111.7 Z" id="Shape" fill="#FFFFFF"></path>
            <path d="M277,261.9 C255.9,261.9 239.7,255.9 228.4,244 C217.1,232.1 211.5,214.7 211.5,191.9 L211.5,31.2 C211.5,28.6 213.5,26.5 216,26.7 L260.3,30.1 C262.5,30.3 264.2,32.2 264.2,34.6 L264,196.6 C264,201.3 265.1,204.7 267.4,206.6 C269.6,208.6 272.9,209.5 277.1,209.5 C280.7,209.5 283.5,208.5 285.5,206.6 C287.5,204.6 288.4,201.3 288.4,196.6 L288.4,37 C288.4,34.4 290.4,32.3 292.9,32.5 L337.3,35.1 C339.5,35.3 341.2,37.2 341.2,39.6 L341.2,191.7 C341.2,214.5 335.8,231.9 324.9,243.9 C313.9,255.9 298,261.9 277,261.9 Z" id="Shape" fill="#FFFFFF"></path>
            <path d="M757.8,202 C737.9,199.9 722.4,190.9 711.7,179.1 C701,167.2 695.7,150 695.7,127.3 L695.7,39.5 C695.7,36.9 697.8,34.7 700.4,34.7 L742,33.8 C743.9,33.8 745.4,35.3 745.4,37.2 L745.4,132 C745.4,136.7 746.5,140 748.6,142 C750.7,144 753.8,144.9 757.7,144.9 C761.1,144.9 763.8,143.9 765.6,142 C767.4,140 768.4,136.7 768.4,132 L768.4,36.7 C768.4,35.1 769.7,33.8 771.3,33.8 L813.6,33.8 C816.2,33.8 818.3,35.9 818.3,38.5 L818.3,136.5 C818.3,159.2 815.9,172.9 807.1,186.2 C798.3,199.4 776.5,203.9 757.8,202 Z" id="Shape" fill="#FFFFFF"></path>
            <path d="M842.3,157.6 C837.8,151.6 835.8,145.1 834.1,136.9 C832.5,128.9 831.9,121.1 831.9,111.5 C831.9,102.5 832,66.7 834.9,58.9 C837.8,51.1 839.5,49.2 844.8,44.1 C850,39 859.4,34.8 866.6,34.6 C878.8,34.2 911.5,32 922,31.3 C923.8,31.2 925.3,32.6 925.3,34.5 L924.5,87.5 C924.5,89.3 923.1,90.7 921.4,90.7 L884.1,90.7 C878.7,90.2 876,93.3 876,100.2 C876,107 878.6,110.6 883.8,111.3 C884,111.3 884.2,111.3 884.4,111.3 L899,111.3 C906.6,111.3 912.9,113.9 918,119 C923.1,124.1 926.9,130.5 929.4,138.3 C931.9,146.1 933.1,191.4 932.9,200.4 C932.7,209.4 931.1,217.8 928.2,225.5 C925.2,233.3 920.8,239.7 914.9,244.8 C909,249.9 901.6,253.5 892.9,252.5 C851.2,247.6 814.5,224.4 798.4,218 C795.7,216.9 795.8,212.9 798.6,212 C804.6,210 812.4,206.5 817.8,201 C825,193.6 828.5,187.8 830,185.1 C830.6,184.1 831.7,183 832.7,183.4 C841.7,187.5 851,194.4 871.5,196.8 C877.4,197.5 882.8,190.8 882.8,183.9 C882.8,176.7 879.6,175.3 873.8,173.6 C854.3,167.7 847,163.9 842.3,157.6 Z" id="Shape" fill="#FFFFFF"></path>
            <path d="M1076.3,207 L1106.3,105.3 C1106.3,105.2 1106.3,105.2 1106.4,105.1 L1113.8,85.2 C1114,84.8 1113.7,84.3 1113.2,84.4 L1078.8,86.9 C1077.4,87 1076.2,85.8 1076.2,84.3 L1076.2,16.4 C1076.2,15.1 1077.1,14 1078.3,13.8 L1161.9,0.6 C1163.3,0.4 1164.6,1.6 1164.6,3.2 L1164.6,68.6 C1164.6,68.9 1164.6,69.2 1164.5,69.4 L1134,171.6 C1134,171.7 1134,171.7 1133.9,171.8 L1127,192.3 C1126.8,192.7 1127.1,193.2 1127.6,193.2 L1158.7,191.2 C1162.1,191.2 1164.9,194.2 1164.9,198 L1164.9,267.8 C1164.9,278 1157.7,286.4 1148.4,286.9 C1141.7,287.3 1132.9,287.6 1121.9,287.6 C1108.2,287.6 1092.9,286.6 1083.9,286 C1079.5,285.7 1076.1,281.6 1076.1,276.8 L1076.1,207.8 C1076.2,207.6 1076.3,207.3 1076.3,207 Z" id="Shape" fill="#FFFFFF"></path>
            <path d="M1012.8,74.1 C1009,73.8 1006.3,75.9 1004,80.7 C1001.8,85.4 999.1,101.1 998.8,147.1 C998.6,183.6 1000.6,214 1003.3,220.2 C1004.6,223.3 1005.4,229.1 1013.4,228.2 C1015.4,228 1017.5,226.2 1019.5,222.1 C1022.4,216.4 1023.6,203.8 1024,195.1 C1024.2,190.9 1028.6,187.9 1032.8,187.9 L1057.9,187.9 C1062.4,187.9 1065.6,191.7 1065.7,196.2 C1065.9,209.6 1066.1,221.4 1064.1,237.1 C1062,253.7 1048.7,279.8 1009.6,279.8 C976.8,279.8 960.8,258.7 956,237.5 C951.4,217.2 952.7,207.7 951.5,146.8 C950.6,101.8 953.2,75.8 956.5,65.6 C962.1,48.4 975.9,25.8 1009.6,25.8 C1030.5,25.8 1051.8,24.6 1063.9,66.2 C1068.2,81.1 1065.9,105.5 1065.8,118.4 C1065.8,122.7 1062.3,126.1 1058,126.1 L1033.2,126.2 C1028.9,126.2 1025.4,122.7 1025.4,118.5 C1025.3,109.1 1026.6,91.9 1022.6,81.8 C1020.4,75.8 1017.7,74.4 1012.8,74.1 Z" id="Shape" fill="#FFFFFF"></path>
            <path d="M410,157.6 L471.3,141.7 C473.2,141.2 475,142.7 475,144.7 L475,184.9 C475,187.7 473.3,190.1 470.9,191.3 C460,196.7 425.1,216.7 395.7,227.3 C374.6,234.9 369.3,236.7 359.2,239.1 C356,239.9 353,237.4 353,234 L353,150.6 C353,149.9 353.2,149.2 353.7,148.6 L404.7,85.1 C404.9,84.9 404.7,84.6 404.5,84.6 L356.1,84.6 C354.4,84.6 353.1,83.2 353.1,81.5 L353.1,37.8 C353.1,36.1 354.4,34.7 356.1,34.7 L471.6,34.7 C473.3,34.7 474.6,36.1 474.6,37.8 L474.6,73.4 C474.7,75.6 474.1,76.9 473.3,78 L409.4,156.8 C409.2,157.2 409.5,157.7 410,157.6 Z" id="Shape" fill="#FFFFFF"></path>
            <circle id="Oval" fill="#FFFFFF" cx="937.6" cy="260.9" r="10.7"></circle>
        </g>
    </g>
</svg>